HIERARCHY
ROOT SpineBase
{
  OFFSET 0.000000 0.000000 0.000000
  CHANNELS 6 Xposition Yposition Zposition Zrotation Xrotation Yrotation
  JOINT SpineMid
  {
    OFFSET 0.000000 26.797977 0.000000
    CHANNELS 3 Zrotation Xrotation Yrotation
    JOINT SpineShoulder
    {
      OFFSET -0.038534 19.820188 -0.692840
      CHANNELS 3 Zrotation Xrotation Yrotation
      JOINT Neck
      {
        OFFSET -0.041058 6.527982 -0.537016
        CHANNELS 3 Zrotation Xrotation Yrotation
        JOINT Head
        {
          OFFSET -2.324093 11.110769 -0.956603
          CHANNELS 3 Zrotation Xrotation Yrotation
          End Site
          {
            OFFSET 0 0 0
          }
        }
      }
      JOINT ShoulderLeft
      {
        OFFSET -16.081548 -0.062298 4.788327
        CHANNELS 3 Zrotation Xrotation Yrotation
        JOINT ElbowLeft
        {
          OFFSET -5.262168 -22.159462 -2.962641
          CHANNELS 3 Zrotation Xrotation Yrotation
          JOINT WristLeft
          {
            OFFSET 16.931853 10.358459 -24.481505
            CHANNELS 3 Zrotation Xrotation Yrotation
            JOINT HandLeft
            {
              OFFSET 2.085170 4.000355 -12.231428
              CHANNELS 3 Zrotation Xrotation Yrotation
              JOINT HandTipLeft
              {
                OFFSET 0.346036 1.171049 -3.402680
                CHANNELS 3 Zrotation Xrotation Yrotation
                End Site
                {
                  OFFSET 0 0 0
                }
              }
              JOINT ThumbLeft
              {
                OFFSET 4.155995 -1.893133 -0.987565
                CHANNELS 3 Zrotation Xrotation Yrotation
                End Site
                {
                  OFFSET 0 0 0
                }
              }
            }
          }
        }
      }
      JOINT ShoulderRight
      {
        OFFSET 15.440161 -1.018657 -7.090066
        CHANNELS 3 Zrotation Xrotation Yrotation
        JOINT ElbowRight
        {
          OFFSET 3.766518 -21.261957 -8.583191
          CHANNELS 3 Zrotation Xrotation Yrotation
          JOINT WristRight
          {
            OFFSET -17.865315 10.477227 -11.694563
            CHANNELS 3 Zrotation Xrotation Yrotation
            JOINT HandRight
            {
              OFFSET -6.564414 5.050698 -6.631399
              CHANNELS 3 Zrotation Xrotation Yrotation
              JOINT HandTipRight
              {
                OFFSET -3.033612 2.997492 -3.305310
                CHANNELS 3 Zrotation Xrotation Yrotation
                End Site
                {
                  OFFSET 0 0 0
                }
              }
              JOINT ThumbRight
              {
                OFFSET -3.407502 -0.380738 2.641075
                CHANNELS 3 Zrotation Xrotation Yrotation
                End Site
                {
                  OFFSET 0 0 0
                }
              }
            }
          }
        }
      }
    }
  }
  JOINT HipLeft
  {
    OFFSET -6.664918 0.253761 -0.071607
    CHANNELS 3 Zrotation Xrotation Yrotation
    JOINT KneeLeft
    {
      OFFSET -5.260709 -33.068134 2.723043
      CHANNELS 3 Zrotation Xrotation Yrotation
      JOINT AnkleLeft
      {
        OFFSET -1.687131 -34.693313 7.987514
        CHANNELS 3 Zrotation Xrotation Yrotation
        JOINT FootLeft
        {
          OFFSET -2.026208 -7.729297 -5.467648
          CHANNELS 3 Zrotation Xrotation Yrotation
          End Site
          {
            OFFSET 0 0 0
          }
        }
      }
    }
  }
  JOINT HipRight
  {
    OFFSET 6.326986 0.883199 -6.762284
    CHANNELS 3 Zrotation Xrotation Yrotation
    JOINT KneeRight
    {
      OFFSET 4.766918 -29.447226 4.900998
      CHANNELS 3 Zrotation Xrotation Yrotation
      JOINT AnkleRight
      {
        OFFSET 0.783787 -37.734233 9.042412
        CHANNELS 3 Zrotation Xrotation Yrotation
        JOINT FootRight
        {
          OFFSET -3.506611 -3.932373 -12.506411
          CHANNELS 3 Zrotation Xrotation Yrotation
          End Site
          {
            OFFSET 0 0 0
          }
        }
      }
    }
  }
}
MOTION
Frames: 12
Frame Time: 0.033333
18.525865 76.107825 366.719883 -0.000000 0.000000 27.247933 -0.000000 0.000000 -27.247933 -0.000000 0.000000 0.000000 -0.000000 0.000000 0.000000 0.000000 0.000000 0.000000 -0.000000 0.000000 0.000000 -0.000000 0.000000 0.000000 -0.000000 0.000000 0.000000 -0.000000 0.000000 0.000000 0.000000 0.000000 0.000000 0.000000 0.000000 0.000000 -0.000000 0.000000 0.000000 -0.000000 0.000000 0.000000 -0.000000 0.000000 0.000000 -0.000000 0.000000 0.000000 0.000000 0.000000 0.000000 0.000000 0.000000 0.000000 -0.000000 0.000000 -27.247933 -0.000000 0.000000 0.000000 -0.000000 0.000000 0.000000 0.000000 0.000000 0.000000 -0.000000 0.000000 -27.247933 -0.000000 0.000000 0.000000 -0.000000 0.000000 0.000000 0.000000 0.000000 0.000000
18.541790 76.109592 366.726705 -0.015902 -0.031123 27.213486 0.028375 0.020406 -27.213496 -0.000000 0.000000 0.000000 -0.000000 0.000000 0.000000 0.000000 0.000000 0.000000 -0.000000 0.000000 0.000000 -0.000000 0.000000 0.000000 -0.251091 0.910550 -1.269718 1.598765 0.779630 4.916669 0.000000 0.000000 0.000000 0.000000 0.000000 0.000000 -0.000000 0.000000 0.000000 0.455684 -0.603398 -0.511389 -1.505898 0.326533 -1.207741 -0.012771 -1.319985 -1.077980 0.000000 0.000000 0.000000 0.000000 0.000000 0.000000 0.028375 0.020406 -27.213496 -0.000000 0.000000 0.000000 -3.011854 13.697507 -1.021240 0.000000 0.000000 0.000000 0.028375 0.020406 -27.213496 -0.000000 0.000000 0.000000 -0.000000 0.000000 0.000000 0.000000 0.000000 0.000000
18.554977 76.110276 366.729274 -0.026322 -0.056176 27.160233 0.049062 0.037966 -27.160262 -0.000000 0.000000 0.000000 -0.000000 0.000000 0.000000 0.000000 0.000000 0.000000 0.498122 1.240199 -0.366355 -0.490298 -1.243312 0.355644 -0.461857 1.562193 -2.311411 2.774667 1.572292 8.869120 0.000000 0.000000 0.000000 0.000000 0.000000 0.000000 -0.000000 0.000000 0.000000 0.792495 -1.149648 -1.043829 -2.565204 0.737027 -1.739175 -0.136066 -2.291368 -2.061910 0.000000 0.000000 0.000000 0.000000 0.000000 0.000000 0.049062 0.037966 -27.160262 -0.000000 0.000000 0.000000 -5.135620 23.442710 -1.321480 0.000000 0.000000 0.000000 0.049062 0.037966 -27.160262 -0.000000 0.000000 0.000000 -0.000000 0.000000 0.000000 0.000000 0.000000 0.000000
18.565424 76.109876 366.727591 -0.031247 -0.075146 27.088173 0.062038 0.052674 -27.088222 -0.000000 0.000000 0.000000 0.483069 0.734067 0.191983 0.000000 0.000000 0.000000 0.581844 1.625683 -0.471792 -0.568670 -1.630337 0.455445 -0.641060 1.942142 -3.113222 3.580606 2.277844 11.769156 0.000000 0.000000 0.000000 0.000000 0.000000 0.000000 -0.175239 -0.959206 -0.101020 1.194390 -0.684472 -1.523659 -3.170815 1.231846 -1.577190 -0.410531 -2.956514 -3.009171 0.000000 0.000000 0.000000 0.000000 0.000000 0.000000 0.062038 0.052674 -27.088222 -0.000000 0.000000 0.000000 -6.637036 30.009622 -1.303563 0.000000 0.000000 0.000000 0.062038 0.052674 -27.088222 0.551032 -0.745593 0.119946 -0.549517 0.746710 -0.112780 0.000000 0.000000 0.000000
18.573133 76.108392 366.721657 -0.030668 -0.088020 26.997273 0.067282 0.064507 -26.997335 -0.000000 0.000000 0.000000 0.488306 0.787969 0.203449 0.000000 0.000000 0.000000 0.560296 1.867714 -0.527065 -0.543385 -1.872703 0.509051 -0.795104 2.043590 -3.667850 4.067183 2.822430 13.556203 0.000000 0.000000 0.000000 0.000000 0.000000 0.000000 -0.198186 -1.149176 -0.126113 1.337888 -0.944759 -2.102084 -3.322684 1.821388 -0.711771 -0.863963 -3.345304 -3.969339 0.000000 0.000000 0.000000 0.000000 0.000000 0.000000 0.067282 0.064507 -26.997335 -0.000000 0.000000 0.000000 -7.675250 34.284018 -1.179044 0.000000 0.000000 0.000000 -0.053843 0.868754 -26.967921 1.108923 -1.523683 0.120793 -0.634437 0.863074 -0.129577 0.000000 0.000000 0.000000
18.578103 76.105824 366.711469 -0.024574 -0.094787 26.887469 0.064784 0.073426 -26.887531 -0.000000 0.000000 0.000000 0.416226 0.746821 0.189304 0.000000 0.000000 0.000000 0.435012 1.971818 -0.533186 -0.416896 -1.975726 0.518512 -0.927406 1.865184 -3.972330 4.265145 3.149313 14.178814 0.000000 0.000000 0.000000 0.000000 0.000000 0.000000 -0.203216 -1.273990 -0.146622 1.360365 -1.229620 -2.725295 -3.027159 2.527398 0.861786 -1.508882 -3.471014 -4.978260 0.000000 0.000000 0.000000 0.000000 0.000000 0.000000 0.064784 0.073426 -26.887531 -0.000000 0.000000 0.000000 -8.342269 36.890085 -1.051811 0.000000 0.000000 0.000000 -0.082509 0.918697 -26.860436 1.187455 -1.601408 0.133034 -0.672030 0.915349 -0.136940 0.000000 0.000000 0.000000
18.586160 76.138558 366.702385 -0.028824 -0.111570 26.746175 0.075951 0.086661 -26.746260 -0.000000 0.000000 0.000000 -0.000000 0.000000 0.000000 0.000000 0.000000 0.000000 -0.131660 1.653627 -0.372387 0.142463 -1.652732 0.376342 -1.148769 0.751170 -3.953636 3.784184 4.358830 12.003213 0.000000 0.000000 0.000000 0.000000 0.000000 0.000000 -0.146184 -1.300810 -0.173929 1.232065 -1.796310 -3.724758 -2.409861 3.833202 3.760725 -2.342993 -3.462660 -6.271396 0.000000 0.000000 0.000000 0.000000 0.000000 0.000000 0.075951 0.086661 -26.746260 -0.000000 0.000000 0.000000 -8.504641 37.396761 -0.997724 0.000000 0.000000 0.000000 -0.102822 0.884280 -26.728749 1.108283 -1.503524 0.120871 -0.588038 0.872717 -0.118538 0.000000 0.000000 0.000000
18.580944 76.123903 366.678343 0.008007 -0.092215 26.547380 0.034052 0.086071 -26.547399 -0.000000 0.000000 0.000000 -0.000000 0.000000 0.000000 0.000000 0.000000 0.000000 -0.824878 1.086078 -0.139398 0.827666 -1.083955 0.155046 -1.357477 -0.827412 -3.625628 2.359436 2.637405 6.596346 0.000000 0.000000 0.000000 0.000000 0.000000 0.000000 -0.145538 -1.229794 -0.161410 0.700091 -2.535270 -5.395756 -1.247300 4.736398 6.714352 -1.317191 -0.718371 -2.509506 0.000000 0.000000 0.000000 0.000000 0.000000 0.000000 0.034052 0.086071 -26.547399 -0.000000 0.000000 0.000000 -7.924072 35.395260 -1.156496 0.000000 0.000000 0.000000 -0.002404 0.915922 -26.496618 0.939049 -1.611730 0.073055 -0.535057 0.885930 -0.105886 0.000000 0.000000 0.000000
18.569265 76.069230 366.645812 0.044082 -0.048273 26.361313 -0.018063 0.062827 -26.361284 -0.000000 0.000000 0.000000 -0.000000 0.000000 0.000000 0.000000 0.000000 0.000000 -0.838222 1.103266 -0.141431 0.841098 -1.101075 0.157584 -1.197320 -0.978632 -3.063706 2.504214 1.985729 6.941421 0.000000 0.000000 0.000000 0.000000 0.000000 0.000000 -0.187412 -1.540424 -0.200912 0.017878 -2.712538 -6.972989 1.248215 7.195357 13.182601 -4.755236 -0.869912 -7.939168 0.000000 0.000000 0.000000 0.000000 0.000000 0.000000 -0.018063 0.062827 -26.361284 -0.000000 0.000000 0.000000 -7.941969 35.391782 -1.141047 0.000000 0.000000 0.000000 -0.018063 0.062827 -26.361284 0.413173 -0.702574 0.086817 -0.412139 0.703181 -0.081754 0.000000 0.000000 0.000000
18.552359 75.994504 366.612673 0.078435 -0.004258 26.251806 -0.068462 0.038511 -26.251780 -0.000000 0.000000 0.000000 -0.794761 -0.472713 -0.170773 0.000000 0.000000 0.000000 -0.494714 1.331479 -0.243679 0.500506 -1.329313 0.255234 -0.815218 -0.301442 -2.310194 2.355268 1.933186 6.703960 0.000000 0.000000 0.000000 0.000000 0.000000 0.000000 -0.099737 -1.579386 -0.242300 -0.817397 -2.976251 -8.299113 2.934194 8.167493 16.381834 -3.545663 -0.057465 -5.994084 0.000000 0.000000 0.000000 0.000000 0.000000 0.000000 -0.068462 0.038511 -26.251780 -0.000000 0.000000 0.000000 -7.941257 35.393988 -1.142002 0.000000 0.000000 0.000000 -0.068462 0.038511 -26.251780 -0.000000 0.000000 0.000000 -0.000000 0.000000 0.000000 0.000000 0.000000 0.000000
18.537405 75.917927 366.567837 0.117558 0.040628 26.097669 -0.123445 0.015228 -26.097694 -0.000000 0.000000 0.000000 -1.142351 -0.739550 -0.260825 0.000000 0.000000 0.000000 -0.159347 1.458727 -0.322431 0.167606 -1.457801 0.326592 -0.584876 -0.562954 -1.471652 1.655491 0.596375 4.618407 0.000000 0.000000 0.000000 0.000000 0.000000 0.000000 0.595033 -1.565325 -0.511741 -0.826707 -2.592144 -6.569228 2.927863 7.159328 14.697903 -3.549359 0.986560 -4.906655 0.000000 0.000000 0.000000 0.000000 0.000000 0.000000 -0.123445 0.015228 -26.097694 -0.000000 0.000000 0.000000 -7.936992 35.407391 -1.147751 0.000000 0.000000 0.000000 -0.123445 0.015228 -26.097694 -0.000000 0.000000 0.000000 -0.000000 0.000000 0.000000 0.000000 0.000000 0.000000
18.525736 75.849536 366.523633 0.130218 0.073579 25.910210 -0.149280 -0.009282 -25.910305 -0.000000 0.000000 0.000000 -1.138384 -0.874311 -0.290000 0.000000 0.000000 0.000000 0.138348 1.448974 -0.363838 -0.129186 -1.449819 0.360454 -0.524370 -1.583817 -0.751395 0.078092 -0.633149 0.112035 0.000000 0.000000 0.000000 0.000000 0.000000 0.000000 0.754241 -0.672397 -0.419675 -0.872438 -2.936350 -5.667396 2.982792 5.545829 12.259708 -2.744001 2.121006 -2.417699 0.000000 0.000000 0.000000 0.000000 0.000000 0.000000 -0.878367 -0.589195 -25.813695 0.403868 0.839494 -0.103377 -7.915143 35.421292 -1.168201 0.000000 0.000000 0.000000 -0.149280 -0.009282 -25.910305 -0.000000 0.000000 0.000000 -0.000000 0.000000 0.000000 0.000000 0.000000 0.000000
